<svg width="4" height="4" viewBox="0 0 4 4" fill="none" xmlns="http://www.w3.org/2000/svg">
<path d="M2.67989 1.4061L2.56864 1.51443C1.97335 2.09411 1.37801 2.67384 0.782604 3.25363C0.662159 3.37092 0.519845 3.39661 0.377705 3.33256C0.240772 3.26986 0.165623 3.1551 0.185582 3.01635C0.203514 2.9161 0.252084 2.82346 0.324945 2.75051C0.90062 2.17979 1.48376 1.61634 2.06464 1.05069L2.17467 0.943541C2.13917 0.937631 2.10337 0.933569 2.06742 0.931373C1.83451 0.930359 1.60143 0.932556 1.36869 0.929683C1.18438 0.927655 1.05716 0.804114 1.05474 0.632408C1.05231 0.445153 1.16772 0.319585 1.36054 0.318402C1.89624 0.315022 2.43165 0.314627 2.96677 0.317218C3.18319 0.318401 3.30502 0.432309 3.30902 0.640689C3.31885 1.15795 3.32469 1.67526 3.32655 2.19264C3.32724 2.38226 3.20055 2.4938 3.00703 2.49228C2.82446 2.49059 2.70436 2.37634 2.6988 2.19213C2.6929 1.97344 2.69238 1.75458 2.68908 1.53572C2.68839 1.50125 2.68388 1.46745 2.67989 1.4061Z" fill="white"/>
</svg>
