<svg width="14" height="14" viewBox="0 0 14 14" fill="none" xmlns="http://www.w3.org/2000/svg">
<path d="M8.30738 10.6698C8.20515 10.6698 8.10293 10.6322 8.02223 10.5515C7.86621 10.3954 7.86621 10.1372 8.02223 9.98117L11.0028 7.00058L8.02223 4.02C7.86621 3.86397 7.86621 3.60573 8.02223 3.4497C8.17825 3.29368 8.4365 3.29368 8.59252 3.4497L11.8583 6.71544C12.0143 6.87146 12.0143 7.1297 11.8583 7.28573L8.59252 10.5515C8.51182 10.6322 8.4096 10.6698 8.30738 10.6698Z" fill="#292D32"/>
<path d="M11.4817 7.40409H2.42695C2.20636 7.40409 2.02344 7.22117 2.02344 7.00059C2.02344 6.78 2.20636 6.59708 2.42695 6.59708H11.4817C11.7023 6.59708 11.8852 6.78 11.8852 7.00059C11.8852 7.22117 11.7023 7.40409 11.4817 7.40409Z" fill="#292D32"/>
</svg>
