<svg width="13" height="13" viewBox="0 0 13 13" fill="none" xmlns="http://www.w3.org/2000/svg">
<path d="M9.03522 4.67403C9.1413 4.56254 9.28455 4.5 9.43383 4.5C9.58311 4.5 9.72636 4.56254 9.83244 4.67403C9.88481 4.72877 9.9264 4.79403 9.95479 4.866C9.98318 4.93796 9.9978 5.01521 9.9978 5.09323C9.9978 5.17125 9.98318 5.24849 9.95479 5.32046C9.9264 5.39243 9.88481 5.45768 9.83244 5.51243L6.64682 8.82625C6.5405 8.93758 6.39715 9 6.2478 9C6.09845 9 5.95511 8.93758 5.84879 8.82625L2.66317 5.51243C2.61079 5.45768 2.5692 5.39243 2.54081 5.32046C2.51242 5.24849 2.4978 5.17125 2.4978 5.09323C2.4978 5.01521 2.51242 4.93796 2.54081 4.866C2.5692 4.79403 2.61079 4.72877 2.66317 4.67403C2.76925 4.56254 2.9125 4.5 3.06178 4.5C3.21106 4.5 3.35431 4.56254 3.46039 4.67403L6.24903 7.3917L9.03522 4.67403Z" fill="#333333"/>
</svg>
