<svg width="796" height="124" viewBox="0 0 796 124" fill="none" xmlns="http://www.w3.org/2000/svg">
<g style="mix-blend-mode:multiply" opacity="0.33">
<path d="M45.091 56.1366C31.851 76.4094 9.777 82.3186 0.39502 82.7391V123.308H795.697V16.294C784.428 20.0139 757.839 36.7548 741.631 73.9589C721.371 120.464 690.838 90.9457 678.568 82.0346C666.298 73.1234 644.612 70.3387 631.2 71.7311C617.789 73.1234 596.673 76.1867 586.685 58.9213C576.698 41.656 566.616 30.4285 539.317 34.6941C515.063 35.5295 504.505 35.2511 493.091 26.8969C481.677 18.5427 447.72 -0.950455 423.465 22.9983C399.21 46.947 374.1 57.8074 347.847 25.5045C321.595 -6.7984 293.631 -2.89977 282.788 7.68222C271.944 18.2642 264.804 50.5204 238.674 60.0012C216.468 64.3089 203.495 71.3912 180.061 95.1228C149.814 125.755 131.552 98.743 117.57 65.8831C103.588 33.0233 61.6411 30.7955 45.091 56.1366Z" fill="url(#paint0_linear_1_626)"/>
</g>
<defs>
<linearGradient id="paint0_linear_1_626" x1="398.046" y1="0.0704346" x2="398.046" y2="216.839" gradientUnits="userSpaceOnUse">
<stop stop-color="#8A74F9"/>
<stop offset="0.479167" stop-color="#8A74F9" stop-opacity="0.263733"/>
<stop offset="1" stop-color="#8A74F9" stop-opacity="0"/>
</linearGradient>
</defs>
</svg>
