<svg width="796" height="112" viewBox="0 0 796 112" fill="none" xmlns="http://www.w3.org/2000/svg">
<path d="M2.03377 84.3977C11.3835 83.978 33.3817 78.0804 46.5763 57.8472C63.0695 32.5556 104.872 34.7791 118.806 67.5747C132.74 100.37 150.94 127.329 181.083 96.7573C211.226 66.1851 213.973 70.0732 239.948 62.2941C266.173 54.4398 266.775 28.0169 285.44 9.77503C296.246 -0.78629 322.131 -4.9648 348.293 27.275C374.455 59.5148 399.48 48.6755 423.651 24.7736C447.823 0.871721 481.663 20.3268 493.037 28.6646C504.412 37.0025 518.013 39.5903 539.105 36.4466C565.384 32.53 576.358 43.3949 586.311 60.6265C596.264 77.8581 617.307 74.8009 630.673 73.4112C644.038 72.0216 665.65 74.8009 677.878 83.6946C690.106 92.5883 720.534 122.049 740.724 75.6347C756.876 38.5033 783.375 21.7951 794.605 18.0825" stroke="#8A74F9" stroke-width="2.41955" stroke-linecap="round" stroke-linejoin="round"/>
</svg>
