<svg width="16" height="16" viewBox="0 0 16 16" fill="none" xmlns="http://www.w3.org/2000/svg">
<path d="M6.52 14.4201C7.30666 14.4201 8.42 13.8668 9.3 11.2201L9.78 9.78009L11.22 9.30009C13.86 8.42009 14.4133 7.30676 14.4133 6.52009C14.4133 5.74009 13.86 4.62009 11.22 3.73343L5.56 1.84676C4.14667 1.37343 2.96667 1.51343 2.24 2.23343C1.51333 2.95343 1.37333 4.14009 1.84667 5.55343L3.73333 11.2134C4.62 13.8668 5.73333 14.4201 6.52 14.4201ZM10.9067 4.68676C12.76 5.30676 13.42 6.04009 13.42 6.52009C13.42 7.00009 12.76 7.73343 10.9067 8.34676L9.22667 8.90676C9.08 8.95343 8.96 9.07343 8.91333 9.22009L8.35333 10.9001C7.74 12.7534 7 13.4134 6.52 13.4134C6.04 13.4134 5.30667 12.7534 4.68667 10.9001L2.8 5.24009C2.46 4.21343 2.52 3.37343 2.95333 2.94009C3.38667 2.50676 4.22667 2.45343 5.24667 2.79343L10.9067 4.68676Z" fill="white"/>
<path d="M9.26 9.60009C9.38667 9.60009 9.51333 9.55342 9.61333 9.45342C9.80667 9.26009 9.80667 8.94009 9.61333 8.74675L7.22667 6.35342C7.03333 6.16009 6.71333 6.16009 6.52 6.35342C6.32667 6.54675 6.32667 6.86675 6.52 7.06009L8.90667 9.45342C9 9.55342 9.13333 9.60009 9.26 9.60009Z" fill="white"/>
</svg>
