<svg width="16" height="16" viewBox="0 0 16 16" fill="none" xmlns="http://www.w3.org/2000/svg">
<path d="M14.6666 4.83334H10.6666C10.3933 4.83334 10.1666 4.60668 10.1666 4.33334C10.1666 4.06001 10.3933 3.83334 10.6666 3.83334H14.6666C14.94 3.83334 15.1666 4.06001 15.1666 4.33334C15.1666 4.60668 14.94 4.83334 14.6666 4.83334Z" fill="#8B8B8B"/>
<path d="M3.99998 4.83334H1.33331C1.05998 4.83334 0.833313 4.60668 0.833313 4.33334C0.833313 4.06001 1.05998 3.83334 1.33331 3.83334H3.99998C4.27331 3.83334 4.49998 4.06001 4.49998 4.33334C4.49998 4.60668 4.27331 4.83334 3.99998 4.83334Z" fill="#8B8B8B"/>
<path d="M6.66665 7.16667C5.10665 7.16667 3.83331 5.89333 3.83331 4.33333C3.83331 2.77333 5.10665 1.5 6.66665 1.5C8.22665 1.5 9.49998 2.77333 9.49998 4.33333C9.49998 5.89333 8.22665 7.16667 6.66665 7.16667ZM6.66665 2.5C5.65331 2.5 4.83331 3.32 4.83331 4.33333C4.83331 5.34667 5.65331 6.16667 6.66665 6.16667C7.67998 6.16667 8.49998 5.34667 8.49998 4.33333C8.49998 3.32 7.67998 2.5 6.66665 2.5Z" fill="#8B8B8B"/>
<path d="M14.6667 12.1667H12C11.7267 12.1667 11.5 11.94 11.5 11.6667C11.5 11.3933 11.7267 11.1667 12 11.1667H14.6667C14.94 11.1667 15.1667 11.3933 15.1667 11.6667C15.1667 11.94 14.94 12.1667 14.6667 12.1667Z" fill="#8B8B8B"/>
<path d="M5.33331 12.1667H1.33331C1.05998 12.1667 0.833313 11.94 0.833313 11.6667C0.833313 11.3933 1.05998 11.1667 1.33331 11.1667H5.33331C5.60665 11.1667 5.83331 11.3933 5.83331 11.6667C5.83331 11.94 5.60665 12.1667 5.33331 12.1667Z" fill="#8B8B8B"/>
<path d="M9.33333 14.5C7.77333 14.5 6.5 13.2266 6.5 11.6666C6.5 10.1066 7.77333 8.83331 9.33333 8.83331C10.8933 8.83331 12.1667 10.1066 12.1667 11.6666C12.1667 13.2266 10.8933 14.5 9.33333 14.5ZM9.33333 9.83331C8.32 9.83331 7.5 10.6533 7.5 11.6666C7.5 12.68 8.32 13.5 9.33333 13.5C10.3467 13.5 11.1667 12.68 11.1667 11.6666C11.1667 10.6533 10.3467 9.83331 9.33333 9.83331Z" fill="#8B8B8B"/>
</svg>
