<svg width="408" height="264" viewBox="0 0 408 264" fill="none" xmlns="http://www.w3.org/2000/svg">
<path fill-rule="evenodd" clip-rule="evenodd" d="M0 12.474C0 5.5848 5.5848 0 12.474 0H395.526C402.415 0 408 5.5848 408 12.474V137.735C407.711 137.712 407.419 137.7 407.124 137.7C400.497 137.7 395.124 143.761 395.124 151.238C395.124 158.715 400.497 164.777 407.124 164.777C407.419 164.777 407.711 164.765 408 164.741V251.526C408 258.415 402.415 264 395.526 264H12.474C5.58481 264 0 258.415 0 251.526V163.466C6.21854 162.96 11.1242 157.108 11.1242 149.964C11.1242 142.819 6.21854 136.967 0 136.461V12.474Z" fill="#8A74F9"/>
</svg>
