<svg width="16" height="16" viewBox="0 0 16 16" fill="none" xmlns="http://www.w3.org/2000/svg">
<path d="M11.4104 3.2665C11.4104 3.27275 11.4104 3.27275 11.4104 3.279C11.2542 3.27275 11.0979 3.2665 10.9292 3.2665H6.11668L6.78543 2.604C7.39793 1.98525 8.07293 1.4165 8.85418 1.4165C9.64168 1.4165 10.3167 1.98525 10.9292 2.604L11.2792 2.954C11.3667 3.03525 11.4104 3.14775 11.4104 3.2665Z" fill="#8A74F9"/>
<path d="M13.6917 8.39775C13.9354 8.39775 14.1292 8.19775 14.1292 7.94775V7.39775C14.1292 4.9415 13.3792 4.19775 10.9292 4.19775H6.99168H5.40418C2.95418 4.19775 2.20418 4.94775 2.20418 7.39775V7.6665C2.20418 7.9165 2.39793 8.11025 2.64168 8.11025C3.16668 8.11025 3.58543 8.53525 3.58543 9.054C3.58543 9.57275 3.16668 10.004 2.64168 10.004C2.39793 10.004 2.20418 10.1978 2.20418 10.4478V10.7165C2.20418 13.1728 2.95418 13.9165 5.40418 13.9165H6.98543H10.9229C13.3729 13.9165 14.1229 13.1665 14.1229 10.7165C14.1229 10.4728 13.9292 10.2728 13.6854 10.2728C13.1604 10.2728 12.7417 9.854 12.7417 9.33525C12.7479 8.8165 13.1667 8.39775 13.6917 8.39775ZM7.42918 11.954C7.42918 12.1978 7.22918 12.3978 6.98543 12.3978C6.74168 12.3978 6.54168 12.1978 6.54168 11.954V10.279C6.54168 10.0353 6.74168 9.83525 6.98543 9.83525C7.22918 9.83525 7.42918 10.0353 7.42918 10.279V11.954ZM7.42918 7.83525C7.42918 8.079 7.22918 8.279 6.98543 8.279C6.74168 8.279 6.54168 8.079 6.54168 7.83525V6.16025C6.54168 5.9165 6.74168 5.7165 6.98543 5.7165C7.22918 5.7165 7.42918 5.9165 7.42918 6.16025V7.83525Z" fill="#8A74F9"/>
</svg>
