<svg width="22" height="22" viewBox="0 0 22 22" fill="none" xmlns="http://www.w3.org/2000/svg">
<path d="M19.25 6.16926C19.2317 6.16926 19.2042 6.16926 19.1767 6.16926C14.3275 5.68342 9.48751 5.50009 4.69335 5.98592L2.82335 6.16926C2.43835 6.20592 2.09918 5.93092 2.06251 5.54592C2.02585 5.16092 2.30085 4.83092 2.67668 4.79426L4.54668 4.61092C9.42335 4.11592 14.3642 4.30842 19.3142 4.79426C19.69 4.83092 19.965 5.17009 19.9283 5.54592C19.9008 5.90342 19.5983 6.16926 19.25 6.16926Z" fill="white"/>
<path d="M7.79167 5.24343C7.755 5.24343 7.71833 5.24343 7.6725 5.23426C7.30583 5.17009 7.04917 4.81259 7.11333 4.44593L7.315 3.24509C7.46167 2.36509 7.66333 1.14593 9.79916 1.14593H12.2008C14.3458 1.14593 14.5475 2.41093 14.685 3.25426L14.8867 4.44593C14.9508 4.82176 14.6942 5.17926 14.3275 5.23426C13.9517 5.29843 13.5942 5.04176 13.5392 4.67509L13.3375 3.48343C13.2092 2.68593 13.1817 2.53009 12.21 2.53009H9.80833C8.83667 2.53009 8.81833 2.65843 8.68083 3.47426L8.47 4.66593C8.415 5.00509 8.12167 5.24343 7.79167 5.24343Z" fill="white"/>
<path d="M13.9425 20.8543H8.05751C4.85834 20.8543 4.73001 19.0851 4.62918 17.6551L4.03334 8.42426C4.00584 8.04842 4.29918 7.71843 4.67501 7.69093C5.06001 7.67259 5.38084 7.95676 5.40834 8.33259L6.00418 17.5634C6.10501 18.9568 6.14168 19.4793 8.05751 19.4793H13.9425C15.8675 19.4793 15.9042 18.9568 15.9958 17.5634L16.5917 8.33259C16.6192 7.95676 16.9492 7.67259 17.325 7.69093C17.7008 7.71843 17.9942 8.03926 17.9667 8.42426L17.3708 17.6551C17.27 19.0851 17.1417 20.8543 13.9425 20.8543Z" fill="white"/>
<path d="M12.5217 15.8126H9.46918C9.09334 15.8126 8.78168 15.5009 8.78168 15.1251C8.78168 14.7493 9.09334 14.4376 9.46918 14.4376H12.5217C12.8975 14.4376 13.2092 14.7493 13.2092 15.1251C13.2092 15.5009 12.8975 15.8126 12.5217 15.8126Z" fill="white"/>
<path d="M13.2917 12.1459H8.70834C8.33251 12.1459 8.02084 11.8343 8.02084 11.4584C8.02084 11.0826 8.33251 10.7709 8.70834 10.7709H13.2917C13.6675 10.7709 13.9792 11.0826 13.9792 11.4584C13.9792 11.8343 13.6675 12.1459 13.2917 12.1459Z" fill="white"/>
</svg>
